<?xml version="1.0" encoding="UTF-8" standalone="no"?>
<!-- Created with Inkscape (http://www.inkscape.org/) -->

<svg
   version="1.1"
   id="svg1"
   width="512"
   height="512"
   viewBox="0 0 512 512"
   xmlns="http://www.w3.org/2000/svg"
   xmlns:svg="http://www.w3.org/2000/svg">
  <defs
     id="defs1" />
  <g
     id="g1">
    <path
       style="fill:#ffffff;fill-opacity:1;stroke:none"
       d="m 301.77085,78.114573 c -14.10614,-5.874512 -23.93149,-13.204407 -40,-11.906647 -15.67929,1.266327 -32.57368,14.556183 -46,22.046295 -29.94896,16.707609 -60.1844,32.916649 -90,49.860349 -11.43431,6.49792 -20.95061,15.5004 -31.753857,22.11111 -8.735283,5.34531 -21.921494,-0.64401 -21.141201,15.88889 1.322231,28.01548 25.798099,55.63569 40.202928,78.00001 14.50841,22.52515 23.77852,45.21277 33.69213,70 3.79193,9.48105 10.71634,20.85257 11.9267,31 1.14276,9.58069 -4.64966,20.51663 -5.9267,30 -17.36079,-7.22791 -48.63782,-20.4949 -54.211415,-40 -6.846733,-23.96051 -1.788582,-55.20743 -1.788582,-80 0,-12.41632 2.656837,-26.19247 -8,-35 v 83 c 0,13.03152 -2.414421,29.06079 3.785492,41 6.155273,11.85327 17.105005,17.51184 28.214505,23.84955 16.90254,9.64245 33.94383,19.08786 51,28.45599 19.08798,10.48416 38.06744,21.21256 57,31.97531 9.47304,5.38523 19.96042,13.08554 31,14.53861 20.21509,2.66076 35.11005,-8.23813 52,-17.51392 28.12228,-15.44446 55.87915,-31.5545 84,-47 14.10858,-7.74917 33.57321,-15.10571 43.39044,-28.30554 10.29694,-13.84482 7.60956,-31.79144 7.60956,-48 v -103 c 0,-15.80912 2.85892,-34.0333 -6.09027,-48.00001 -11.46259,-17.88925 -43.6406,-31.97537 -62.90973,-40 1.6629,11.25961 8.82895,14.24268 18,19.42438 13.37274,7.55566 31.91898,14.07803 39.16821,28.57562 4.56363,9.12671 1.96949,19.27188 3.11728,29 3.79917,32.19947 -0.28549,65.70512 -0.28549,98.00001 h -1 l -8,-29 6,-2 -1,-5 -6,2 c 0,-19.15778 -8.37643,-35.44244 -15.39969,-53 -3.61551,-9.03846 -6.38495,-19.75788 -11.59415,-27.99616 -3.72409,-5.88959 -11.32006,-7.83735 -14.43746,-14.01929 -13.5189,-26.8085 -15.86063,-58.53958 -30.99619,-84.984557 -8.44446,-14.754242 -28.922,-43.026276 -45.78314,-19.985352 -3.42166,4.675751 -5.57474,10.658936 -7.78937,15.985352 m 59,83.999997 -30,-9 v -1 c 5.44815,-2.26825 12.21768,-4.21939 12,-11 -9.38916,3.91013 -17.80728,12.40448 -28,6 l 19,-9 c -8.09018,-9.11694 -18.64243,9.36078 -27.81174,6.29245 -5.27456,-1.76501 0.64481,-6.7193 2.83026,-7.97995 8.77295,-5.06061 19.30588,-11.4664 28.98148,-14.3125 l -2,-5 -30,15 c 2.16733,-10.46017 9.98859,-13.2142 19,-17.75232 4.60257,-2.31784 11.49744,-4.08667 10,-10.24768 l -24,12 c 0.80652,-9.77576 8.01709,-12.25189 16,-16.246916 4.46686,-2.23541 10.42328,-3.89715 9,-9.753081 l -21,9.999997 c 1.52994,-11.361417 4.05563,-25.318692 15,-30.999997 -8.52768,-5.919525 -14.01785,6.103699 -16,13 -6.15768,21.423857 -12.49261,43.162107 -17,64.999997 22.29922,5.15884 44.2807,14.42688 66,21.66666 17.04422,5.68139 31.79596,9.3063 37,28.33334 -9.28632,-2.7316 -16.91882,-12.43713 -27,-9 13.086,8.00903 30.62714,13.01197 35,29.00001 -10.30457,-4.31293 -20.09506,-14.51266 -31,-16.82099 -6.53085,-1.38245 -12.70151,5.04944 -19,5.88657 -6.32715,0.84094 -13.43707,-2.21173 -20,-2.05093 -15.39911,0.37729 -30.73621,11.43201 -33.53549,26.98535 -3.5199,19.55713 11.18701,43.20355 15.53549,62 -8.13617,0.19128 -12.86166,5.02637 -20,8.04474 -7.02209,2.96924 -13.90472,2.4668 -19,8.95526 h -2 c -11.51289,-24.34247 -36.85544,-71.19421 -70,-54.62192 -11.00871,5.50437 -14.27173,15.2338 -22.38966,23.2284 -4.70827,4.63675 -12.44844,4.46719 -17.18056,9.03164 -2.47136,2.38379 -3.10898,6.29785 -4.42978,9.36188 -4.25029,-4.46063 -4.72661,-8.09073 -4,-14 -5.01958,1.16513 -7.14957,0.47006 -11,-3 l -6,13 h -2 c -3.98248,-12.45895 1.34274,-23.22031 5.80786,-35 7.14183,-18.84128 18.24899,-40.07117 21.19214,-60.00001 l -63,-21.34412 -13.976079,-1.17285 -3.102623,3.92902 10.078705,0.76544 22.999997,7.82251 -20,9 2,5.00001 c 10.84689,-4.50993 22.3028,-14.16957 34,-9.00001 v 1 c -6.45508,3.75339 -22.77554,6.96009 -22,16.00001 11.58164,-6.17435 26.0399,-16.73628 39,-11.00001 -7.64964,6.33717 -21.44901,12.24858 -31,15.00001 l 2,5 36,-17 c -1.09023,10.57462 -13.80656,15.35156 -23,18 3.69518,6.51495 12.54204,-0.43973 18,-2 -1.12891,3.43103 -2.11281,6.77472 -5.13348,9.03394 -4.45688,3.33334 -13.59133,3.87027 -11.86652,10.96606 l 11,-4 -9,25 c -4.73624,-3.91437 -6.61117,-10.4599 -11.37886,-14.15665 -5.26929,-4.08569 -13.10065,-3.61093 -18.52777,-7.5455 -11.24127,-8.14975 -19.866171,-27.76486 -25.081793,-40.29786 -2.55954,-6.15051 -11.187958,-21.64944 -4.577934,-27.39661 4.942642,-4.29742 15.993064,-0.11798 21.566357,0.99692 20.04729,4.01026 40.03181,8.43811 60,12.82407 6.14864,1.35052 19.02625,1.63342 21.61111,8.59491 2.20832,5.94735 -5.42208,17.52998 -7.76158,22.98072 -8.57518,19.97919 -16.5489,40.34894 -25.84953,60 5.75116,1.39908 11.90706,1.13495 16.8125,-2.8179 5.46091,-4.40045 0.3203,-9.78559 -4.8125,-10.1821 2.02808,-8.53833 7.53439,-27.10605 15,-32 l 9,25 c 2.25064,-1.16754 4.11137,-2.38519 6.00464,-4.10803 12.39805,-11.28211 -0.62479,-17.76438 -0.80711,-30.89197 -0.10296,-7.41241 5.62805,-13.7059 6.07176,-21.00001 0.56154,-9.23117 -10.76711,-16.43716 1.73071,-22 4.63817,7.94659 7.49129,18.28064 14.10493,24.8264 9.70391,9.60427 25.7427,14.0624 29.89507,28.17361 l 7,-3 c -12.40401,-21.2518 -34.10229,-30.78083 -41,-56.00001 l 6,-2 10.52933,19.69907 17.08024,10.93826 11.39043,22.36268 9,-4 c -2.63391,-6.32642 -7.41808,-13.10001 -8.18518,-20.00001 -1.27173,-11.43906 2.72359,-19.87912 -2.55942,-31 -1.04123,-2.1918 -7.12562,-15.04364 0.55016,-12.33798 4.17363,1.47116 6.14212,9.71509 7.94752,13.33798 5.77016,11.57901 2.19301,20.76459 3.35109,33.00001 0.55637,5.87811 3.78263,11.55167 5.89583,17 9.13562,-3.5835 2.67957,-9.47345 3.09335,-17 0.4625,-8.41233 2.90558,-18.69697 1.47687,-27.00001 -1.44351,-8.3891 -7.59032,-15.66455 -9.57022,-24 l 10,-3 4.51312,12.48999 21.48688,7.39429 46,13.11572 1,-5 c -16.82578,-3.48215 -33.47311,-9.40375 -50,-14.1412 -8.66931,-2.48508 -16.14667,-3.59314 -17.49536,-13.8588 -0.98844,-7.52359 4.78274,-16.28079 7.64505,-23 7.09094,-16.64584 13.84891,-33.435299 21.13425,-49.999997 3.08953,-7.024719 8.32699,-16.573425 17.71606,-13.102631 6.1312,2.26648 10.51767,8.915802 13.99924,14.102631 9.27447,13.817047 23.099,36.660457 22.80246,53.999997 -0.2233,13.05612 -9.29856,18.93655 -4.8017,33 m -63,-75.999997 -15.5787,38.999997 -7.81174,14.91434 -19.60956,6.51004 -33,12.33178 -28,14.47455 -14,6.59723 -23,-4.40356 -53,-11.42438 c 6.75273,-14.17987 33.7761,-22.95282 47,-30.42438 24.55261,-13.87234 49.44859,-27.12988 74,-40.999993 11.22542,-6.341707 24.95522,-16.983644 38,-18.402009 12.96725,-1.409943 24.45694,4.873291 35,11.826385 m -38,19.999997 -10,-2 -1,3 9,5 -9,2 8,5 h -6 l 5,4 -11,13 18,4 -4,-16 5,1 1,-4 -4,-3 8,1 1,-1 v -2 l -8,-3 v -1 h 12 l -10,-5 v -2 h 11 c 0,-6.617456 0.36258,-15.239255 -6.10493,-19.353391 -5.89692,-3.751159 -16.92731,5.987916 -16.35264,12.219915 0.31554,3.421806 5.80684,5.063376 7.45757,8.133476 m 4,-14.999996 v 4 l -4,-1 v -2 l 4,-1 m -55,23.999996 c 0.2108,2.60367 1.41406,6.05853 0.51234,8.57562 -1.52279,4.25077 -7.89651,7.92154 -5.23997,13.19983 2.38722,4.74317 29.09018,9.67682 32.27084,4.90665 3.39746,-5.09531 -0.66806,-9.6398 -1.12036,-14.6821 -0.4061,-4.52734 2.36447,-9.34576 2.57715,-14 l -29,2 m -15,14 c -5.58798,0.2905 -10.05278,4.90585 -15.28549,4.83795 -7.61603,-0.0988 -24.85066,-1.15426 -21.06096,12.16205 1.44102,5.06351 5.75963,7.79846 8.17515,12.16977 2.45784,4.44788 1.36455,11.0997 7.21528,13.21139 6.30503,2.27567 10.79837,-4.63009 15.95602,-6.64349 6.05139,-2.36227 13.81946,-2.74075 15.52237,-10.73767 1.80165,-8.46063 -10.44061,-15.25662 -10.52237,-25 m -4,6 c 0.0907,7.67136 10.96478,12.53159 9.14893,18.98148 -1.65697,5.88552 -7.56731,5.01529 -12.10958,6.19369 -4.19343,1.08789 -7.64264,8.26541 -12.60571,6.17746 -3.35645,-1.41205 -2.6207,-7.43597 -3.94753,-10.26312 -2.26945,-4.83563 -13.41661,-11.55445 -5.33796,-17 5.56045,-3.74814 9.34367,0.22302 14.85185,0.26236 3.47975,0.0248 6.63808,-3.41306 10,-4.35187 m 180,4 9,30 c -16.19748,-5.27936 -17.02661,-15.31046 -11,-30 h 2 m -234,11 -1,12 h 12 l 1,-11 -12,-1 m 266,1 -7,9 7,8 h 1 l 7,-8 -8,-9 m 17,14 c -2.58316,7.92273 -5.09116,10.46472 -13,13 v 1 c 7.21252,2.80304 10.55148,5.5542 13,13 h 1 c 2.64575,-8.1138 5.47284,-9.66223 13,-13 l -14,-14 m -135,22 15,29.00001 h 2 c 5.98184,-10.74664 5.53802,-14.19116 -0.57562,-25.00001 -1.35651,-2.39828 -2.76358,-6.61945 -5.63733,-7.58179 -3.2287,-1.0812 -7.88458,2.37339 -10.78705,3.58179 m 142.05402,15.97071 c -5.70887,1.27619 -3.94562,9.72168 1.89196,8.65277 5.86158,-1.0733 3.68024,-9.8984 -1.89196,-8.65277 m -107.05402,13.0293 c 0.0774,9.3457 3.21637,17.37604 10.01544,23.95602 2.09787,2.03028 5.95056,5.97535 9.27545,4.5355 12.08908,-5.23526 -2.74777,-19.27073 -5.25384,-23.63117 -2.14115,-3.72549 -1.27435,-5.94552 -5.03705,-8.86035 10.02927,-6.96957 24.12277,-0.20688 27.36188,11 2.75812,9.54269 -1.49958,19.68692 -9.36573,25.36188 -23.78485,17.1593 -51.61895,-13.34662 -26.99615,-32.36188 m 99,27 -41,17 c 5.51224,-11.80637 14.73056,-16.49252 27,-20 -6.47205,-4.83408 -11.03638,-0.23749 -18,1 1.63815,-5.09619 2.57559,-8.33597 8,-10 l -12,-4 -22,40 c 12.08093,-6.17642 15.60141,-26.86383 24,-37 4.60919,10.06979 -9.80521,25.54266 -15,34 l 5,-2 4,9 43,-18 c -0.003,3.85901 0.48407,8.45203 -1.85803,11.78705 -6.29288,8.96069 -27.27878,14.67837 -37.14197,19.07406 -3.6283,1.61701 -7.8804,4.81943 -12,4.65122 -5.85168,-0.23889 -12.39459,-5.60364 -18,-7.51233 -0.56625,6.55878 6.21848,7.28149 11,10 l -13,7 2,5 16,-7 c 4.0274,11.3877 -7.69699,8.01157 -13.53397,13.79474 -4.6206,4.57806 7.24262,1.61362 8.53244,1.15588 2.35196,-0.83465 4.54642,-1.52813 7.00153,-1.95062 -1.41037,8.78064 -10.36673,9.39252 -18,10 l 1,5 11,-2 c -6.70255,12.91171 -19.88589,14.85394 -33,13.28549 -4.56656,-0.54617 -11.20877,0.17374 -13.03705,-5.34027 -0.75378,-2.27335 1.52197,-17.83853 2.6937,-19.94522 1.99066,-3.57907 5.61663,-5.64349 6.18054,-10 1.26501,-9.7731 -6.41788,-20.38965 -7.83719,-30 l 15,6 2,-5 -15,-9 c 6.64066,-3.33282 14.17917,-2.94916 21,-5.87885 16.95172,-7.28121 21.14221,-22.44354 18,-39.12115 4.26114,-2.2717 10.03445,-5.74075 15,-5.60187 5.00815,0.14008 9.85443,4.15628 14,6.59107 10.51166,6.1737 26.70428,11.72924 29,25.0108 m -187,0 -12,-29 c -2.9998,0.69431 -8.24426,1.40424 -9.86806,4.41898 -2.16687,4.02301 5.02484,20.00567 8.50618,22.5679 3.38498,2.4913 9.38263,2.00216 13.36188,2.01312 m 138,-2 h 1 l 10,-20 c -8.4921,3.01889 -9.38956,12.19345 -11,20 m -1,1 1,1 -1,-1 m -1,2 1,1 -1,-1 m -232,31 -19,-30 c 11.93176,2.05322 28.96133,17.6557 19,30 m 231,-29 -16,26 c 6.57028,-3.57202 16.0752,-18.37988 16,-26 M 227.8102,260.89235 c 6.46501,-0.48212 7.36937,9.09662 0.95679,9.75617 -6.18245,0.63592 -7.29332,-9.28363 -0.95679,-9.75617 m 122.96065,-0.77777 c -4.35547,2.91949 -9.28055,7.61789 -6,13 l 6,-13 m -187,4 c 0.90141,3.86566 -0.1669,5.16397 -4,6 l 4,-6 m 195,3 1,1 -1,-1 m -158,1 c 1.19511,27.41098 31.97501,32.85815 45,10 h 1 c -2.66115,17.75439 -24.11641,25.37979 -38.99614,16.6366 -8.72446,-5.12647 -13.41849,-18.01624 -7.00386,-26.6366 m 216,5 c -2.85907,19.35892 -24.86194,24.03522 -42,28 l -2,-8 44,-20 m 8,4 1,6 -4,1 1,-7 h 2 m -320,24 10,1 v 3 l -11,1 c 2.47956,3.82465 6.80764,2.99954 11,3 v 3 l -9,3 9,1 v 3 l -6,1 v 2 l 6,1 -7,16 h 18 l -7,-16 6,-1 v -2 l -6,-1 v -3 l 9,-1 v -2 l -9,-1 v -3 c 4.19238,-4.6e-4 8.52045,0.82465 11,-3 l -11,-1 v -3 l 10,-1 c -1.01054,-22.06195 -22.23602,-21.56757 -24,0 m 149,-11 c -0.49796,6.30969 -4.55583,15.21991 3,18 l 4,-14 c 9.11798,4.72565 11.46411,17.98322 19.18442,24.58102 4.5842,3.9177 8.45822,1.93149 13.58795,2.90665 2.92511,0.55603 3.46176,4.07065 5.53009,5.81018 3.4375,2.89105 9.30609,2.29566 11.46374,6.81095 2.1511,4.50155 -3.0086,9.68911 -5.57406,12.8912 -7.44525,9.29279 -17.57044,17.72937 -30.19214,14 l 8,-6 -2,-4 c -7.78033,3.69693 -13.64006,11.88501 -22,5 l 16,-8 -1,-4 c -6.92003,2.35632 -21.57144,13.67444 -23,1 l 16,-6 -2,-4 -15,5 3,-14 -5,-1 -4,18 c -21.23834,5.79718 -51.41898,28.01245 -72,16 v -1 l 33,-14.20062 11.75926,-6.21759 -1.75926,-8.58179 -50,20 c -3.36223,-11.48199 4.78108,-28.78326 8,-40 1.21298,-4.22678 1.87314,-10.14154 4.72763,-13.60956 2.53713,-3.08246 10.23279,-6.83664 14.27237,-6.68286 5.07419,0.19312 9.11383,6.77679 13,9.49228 6.17917,4.31772 13.63774,5.30136 21,4.70679 11.14996,-0.90049 17.61623,-10.89753 28,-12.90665 m 174,-2 c 2.94543,14.27042 -0.62506,16.14359 -15,18 2.18555,-9.20142 5.38995,-15.7691 15,-18 m -313,2 1,1 v 2 l -1,1 h -2 l -1,-1 v -2 l 1,-1 h 2 m 295,4 c -4.45697,16.29559 -19.31207,19.31601 -35,20 0.61063,-13.10388 24.36526,-16.53961 35,-20 m -97,30 -7,-8 3,10 c -9.30099,-2.94839 -9.03583,-10.89825 -19.98071,-9.51312 -1.50428,0.19037 -3.78101,0.14862 -4.09799,-1.80091 -0.45801,-2.81698 2.95135,-4.90551 5.08334,-5.83178 7.47345,-3.24701 15.43323,-6.57416 22.99536,-9.62964 1.98981,-0.80402 6.38348,-2.09973 7.82407,0.36111 1.92242,3.28394 -7.29007,7.20529 -7.37192,11.41819 -0.10532,5.42108 3.52826,7.95996 -0.45215,12.99615 m 29.3179,-20.8287 c -2.42645,1.37869 -0.23428,5.05838 2.07947,3.6574 2.20309,-1.33395 0.28012,-4.99813 -2.07947,-3.6574 m 85.6821,5.8287 -17,49 6,2 19,-41 h 1 c 1.38913,10.75659 3.18298,22.96265 -2.35184,32.99924 -5.94717,10.78433 -18.33291,15.71667 -28.64816,21.30941 -17.46582,9.46961 -34.75494,19.40445 -52,29.27005 -9.93777,5.68522 -19.96536,11.21592 -30,16.72684 -4.22491,2.32028 -9.01791,6.10425 -14,6.37656 -4.80353,0.26254 -9.17767,-3.19119 -14,-3.58872 -17.67911,-1.45736 -36.64474,-0.69812 -54,-4.60727 -11.19159,-2.52084 -29.91768,-11.1188 -37.56636,-19.81481 -2.35768,-2.68052 -4.98628,-14.36265 0.71451,-14.8588 5.95079,-0.51791 12.95717,5.47327 17.85185,8.1875 l -7,6 v 1 l 2,3 11,-5.1983 29,14.69986 18,0.58795 43,1.91049 v -1 l -20,-9.31946 -37,-2.68054 c 7.2039,-6.3562 28.32434,-13.7442 38,-13.81635 14.00012,-0.10446 24.26804,3.29154 38,-2.84954 12.93311,-5.78382 16.48492,-18.11936 27.09335,-25.34027 7.97583,-5.42896 20.64023,-6.14093 27.26932,-13.38428 7.90616,-8.63867 8.50244,-24.64264 17.96603,-31.87116 4.33207,-3.3089 12.41272,-3.62988 17.6713,-3.7384 m -245,4 c -4.27362,2.45859 -5.83449,3.95627 -6,9 4.67366,-1.60016 9.61177,-3.64905 6,-9 m 159.3179,2.1713 c -2.42645,1.37869 -0.23428,5.05838 2.07947,3.6574 2.20309,-1.33395 0.28012,-4.99813 -2.07947,-3.6574 m 57.6821,-1.1713 c -1.44125,8.37018 -7.09201,22.70135 -14.20987,27.78705 -7.83917,5.60107 -19.41052,6.23987 -26.57718,12.63116 -10.79635,9.62833 -13.49902,21.03321 -29.21295,25.66898 -11.66187,3.44037 -23.22531,-2.4856 -34,0.30093 -21.022,5.43665 -35.55969,17.63867 -57,7.61188 5.39989,-7.31549 19.25003,-18.61047 28,-21.43597 5.20132,-1.67957 10.70401,0.76968 16,0.14276 8.46762,-1.00238 14.01035,-5.35486 21,-9.70679 14.5531,21.24875 45.25354,10.03671 37,-16 16.22696,-1.29138 19.2934,-12.03854 31.18442,-20.14276 7.13861,-4.86524 19.52603,-4.71259 27.81558,-6.85724 m -223,21 29,-11 c -8.28355,-4.96207 -28.18269,0.41299 -29,11 m 94,-2 c 1.90933,4.7406 5.21991,3.6907 6,-1 l -6,1 m 13,7.34412 c -2.65637,0.0543 -2.75122,4.03308 0,4.02084 2.7327,-0.0122 2.69226,-4.07584 0,-4.02084 m 31,1.65588 h 1 l 7,13 4,-1 -6,-14 c 4.09998,4.3e-4 9.92667,-0.80847 13.36188,1.93829 6.91363,5.52802 3.22592,16.47101 -3.40201,20.14197 -7.33859,4.06452 -22.22037,1.62177 -22.26233,-9.08026 -0.0157,-3.99506 4.10486,-7.94019 6.30246,-11 m -181,-1 v 8 l -9,-1 6,7 -6,5 h 8 l -1,8 7,-5 4,5 v -7 h 8 l -5,-6 6,-5 h -8 l 1,-8 -7,5 -4,-6 m 112,7 3,7 c -12.95706,7.56262 -46.09402,30.17599 -58,12 l 55,-19 m 15,15 v 2 c -8.24469,5.13428 -20.05615,19.13568 -30,19.59027 -5.44719,0.24902 -11.99763,-3.66055 -17,-5.59027 v -2 c 14.56302,-6.06311 31.73889,-21.07974 47,-14 m 113,7 2,7 -7,-4 3,6 -6,-3 1,6 -4,-2 v 4 l -11,1 v 1 l 6,9 5,-9 5,2 v -5 l 5,4 -1,-6 6,5 -2,-7 5,4 c 11.73932,-8.47418 5.21375,-15.90784 -7,-13 m 10,4 -3,-2 3,2 m -147,46 c 4.73418,2.72345 8.83067,7.63232 14,9.41125 13.33621,4.58948 33.90802,2.58875 48,2.58875 v 1 c -16.29144,9.97089 -31.8365,16.78043 -50,6.97223 -8.46848,-4.57294 -16.63547,-8.92529 -12,-19.97223 z"
       id="path1" />
  </g>
</svg>
